<?xml version="1.0" standalone="no"?>
<!DOCTYPE svg PUBLIC "-//W3C//DTD SVG 20010904//EN"
 "http://www.w3.org/TR/2001/REC-SVG-20010904/DTD/svg10.dtd">
<svg version="1.0" xmlns="http://www.w3.org/2000/svg"
 width="236.000000pt" height="236.000000pt" viewBox="0 0 236.000000 236.000000"
 preserveAspectRatio="xMidYMid meet">
<metadata>
Created by potrace 1.11, written by Peter Selinger 2001-2013
</metadata>
<g transform="translate(0.000000,236.000000) scale(0.100000,-0.100000)"
fill="#000000" stroke="none">
<path d="M595 2126 c-103 -48 -185 -163 -193 -266 -4 -49 -1 -60 23 -88 18
-22 44 -37 81 -48 63 -18 79 -40 69 -93 -3 -20 -10 -102 -13 -183 -4 -80 -10
-149 -14 -153 -4 -4 -37 -2 -74 4 -36 7 -69 10 -71 7 -5 -5 27 -27 196 -133
107 -67 161 -69 161 -8 0 30 -31 56 -103 85 -62 25 -62 25 -65 70 -9 111 41
202 116 216 53 10 56 13 31 40 -16 17 -33 24 -61 24 -21 0 -38 4 -38 9 0 5 23
28 50 51 53 45 61 60 31 60 -10 0 -41 24 -70 54 -38 41 -51 62 -51 85 0 45 34
50 129 18 l76 -26 -30 26 c-16 14 -52 45 -79 69 -53 46 -53 64 0 64 47 0 103
-30 147 -79 48 -53 85 -55 174 -6 34 19 70 32 78 29 8 -4 15 -7 15 -8 0 -1
-26 -29 -59 -63 -61 -64 -96 -124 -107 -183 -7 -34 -6 -33 38 25 25 33 68 81
96 107 49 46 52 47 109 46 40 -1 73 5 105 19 l47 22 82 -20 c131 -31 197 -70
332 -198 46 -44 57 -50 57 -34 0 11 -7 26 -15 33 -10 8 -15 30 -15 62 l0 49
60 -7 c68 -8 77 -1 23 17 -21 7 -54 19 -73 27 l-35 14 40 20 c88 44 119 102
72 132 -34 23 -147 46 -229 47 -56 1 -89 -5 -141 -25 -64 -25 -107 -33 -107
-20 0 3 17 26 38 51 l37 46 -40 -7 c-22 -4 -78 -27 -125 -51 -65 -33 -105 -46
-167 -55 -46 -6 -108 -20 -139 -30 -32 -11 -61 -20 -65 -20 -4 0 -20 24 -34
53 -29 58 -76 111 -117 133 -42 22 -125 17 -183 -10z"/>
<path d="M1866 1660 c12 -48 34 -185 34 -216 0 -7 -16 -20 -36 -29 -43 -18
-39 -27 21 -49 l45 -18 0 -83 0 -84 -37 -6 c-91 -16 -91 -13 -17 -89 l67 -68
20 34 c11 18 22 35 23 36 2 2 21 1 42 -3 l40 -6 -35 -33 -36 -32 37 -22 c40
-24 48 -60 21 -96 -8 -11 -15 -23 -15 -28 0 -4 28 -21 63 -38 l62 -31 -33 28
c-54 46 -36 64 88 88 66 13 60 21 -43 57 -132 46 -135 57 -32 118 41 24 75 48
75 52 0 17 -44 18 -90 3 -67 -22 -123 -13 -150 25 -17 24 -20 44 -20 153 0
104 -4 139 -25 212 -21 71 -68 175 -79 175 -2 0 3 -23 10 -50z"/>
<path d="M290 1267 c1 -7 7 -23 15 -37 21 -37 19 -42 -30 -73 -25 -16 -45 -31
-45 -34 0 -11 188 6 221 20 l32 13 -39 30 c-54 42 -154 95 -154 81z"/>
<path d="M170 1066 c47 -12 91 -25 99 -27 9 -3 -33 -40 -107 -94 -120 -87
-122 -89 -104 -108 18 -17 26 -18 141 -6 67 6 124 9 127 6 6 -6 -43 -135 -59
-155 -15 -19 9 -32 62 -32 37 0 53 7 98 41 29 23 53 43 53 45 0 2 -24 -6 -52
-18 -63 -25 -113 -34 -122 -20 -3 6 21 47 54 91 48 65 57 83 45 88 -9 3 -14
12 -11 19 3 8 1 14 -5 14 -9 0 -230 -54 -271 -66 -13 -4 -18 0 -18 13 1 12 52
53 155 122 85 58 155 106 155 108 0 2 -73 3 -162 2 l-163 -1 85 -22z"/>
<path d="M1307 1004 c-54 -17 -120 -76 -131 -118 -10 -42 25 -110 73 -140 84
-54 196 -58 297 -12 64 30 94 72 94 134 0 111 -178 184 -333 136z"/>
<path d="M2041 760 c-11 -6 -3 -22 39 -72 30 -34 69 -80 88 -100 l35 -37 -24
-30 c-13 -16 -28 -30 -34 -30 -5 -1 -53 10 -105 24 l-94 26 -40 -40 c-22 -22
-38 -42 -36 -43 3 -2 24 -18 47 -36 23 -17 44 -32 47 -32 3 0 -4 15 -15 34
-16 28 -18 39 -9 55 13 26 11 26 125 0 51 -12 100 -19 107 -16 8 3 24 21 36
40 l20 35 -79 108 c-96 131 -91 125 -108 114z"/>
<path d="M500 558 c-52 -17 -61 -22 -45 -29 11 -4 32 -8 48 -8 27 -1 27 -1 27
-71 l0 -71 70 57 c73 59 84 77 31 50 -48 -25 -52 -22 -47 39 6 64 9 63 -84 33z"/>
<path d="M1055 285 c125 -92 275 -138 382 -116 68 13 144 49 193 89 l34 29
-109 -23 c-212 -45 -309 -40 -457 21 -35 14 -70 29 -78 32 -8 3 8 -11 35 -32z"/>
</g>
</svg>
